<?xml version="1.0" encoding="UTF-8" standalone="no"?>
<!-- Created with Inkscape (http://www.inkscape.org/) -->

<svg
   version="1.1"
   id="svg1"
   width="1434.6667"
   height="1838.6667"
   viewBox="0 0 1434.6667 1838.6667"
   xmlns="http://www.w3.org/2000/svg"
   xmlns:svg="http://www.w3.org/2000/svg">
  <defs
     id="defs1" />
  <g
     id="g1">
    <path
       style="fill:#000000"
       d="m 707.33337,1832.5116 c -13.18262,-2.0051 -43.09284,-12.3069 -65.70618,-22.631 -3.87173,-1.7676 -7.36018,-3.2139 -7.7521,-3.2139 -0.39193,0 -3.99193,-1.5 -8,-3.3333 -4.00808,-1.8333 -7.58262,-3.3333 -7.94343,-3.3333 -0.36081,0 -5.8026,-2.4 -12.09288,-5.3334 -6.29027,-2.9333 -11.63347,-5.3333 -11.87377,-5.3333 -1.14956,0 -24.02506,-10.95 -49.21408,-23.5578 -168.00135,-84.0889 -317.10971,-208.4138 -407.18262,-339.5042 -4.63743,-6.7492 -11.61373,-16.7713 -15.50287,-22.2713 -26.30252,-37.1968 -61.832936,-105.4419 -78.597274,-150.9657 -4.548735,-12.3522 -12.606617,-34.0798 -15.465178,-41.701 -32.5939436,-86.8988 -35.1206888,-76.2417 27.997015,-118.0837 141.204657,-93.60745 133.527607,-87.2911 138.457767,-113.91632 1.7703,-9.56044 5.08179,-28.90867 6.84609,-40.00001 0.69991,-4.4 2.51329,-15.8 4.02974,-25.33333 1.51645,-9.53333 3.59244,-22.43333 4.6133,-28.66667 1.02086,-6.23333 2.22625,-14.33333 2.67864,-18 0.45238,-3.66667 1.66652,-11.76667 2.69808,-18 1.03156,-6.23333 2.53924,-16.43333 3.35039,-22.66667 0.81116,-6.23333 2.00467,-15.23333 2.65225,-20 2.95939,-21.7833 2.92983,-22.31653 -1.31943,-23.79783 -4.70497,-1.64016 -6.07951,-0.30409 -7.3365,7.13116 -1.32473,7.83592 -8.31186,43.86225 -10.60234,54.66667 -1.08824,5.13334 -2.36149,11.56196 -2.82944,14.28583 -1.29141,7.51708 -2.09188,7.70008 -21.23854,4.85552 -9.53333,-1.41634 -20.93333,-2.89623 -25.33333,-3.28866 -4.4,-0.39242 -11.60001,-1.55443 -16.00001,-2.58224 -4.4,-1.02782 -10.7,-2.15463 -14,-2.50404 -3.3,-0.34941 -10.5,-1.24626 -16,-1.99301 -5.5,-0.74675 -10.759705,-1.37625 -11.688236,-1.39889 -0.928531,-0.0226 -2.709119,-2.18198 -3.956861,-4.79852 -2.650259,-5.55765 -8.361743,0.63084 50.311767,-54.51373 20.16667,-18.95374 42.36667,-39.93593 49.33334,-46.62708 6.96666,-6.69116 22.86667,-21.73889 35.33333,-33.43941 52.2978,-49.0838 49.00763,-44.01565 37.14888,-57.22389 -87.36383,-97.30569 -48.29698,-198.32421 114.18446,-295.2566 15.41024,-9.19336 21.71813,-13.75177 24.80068,-17.92226 4.3432,-5.87606 4.65204,-6.85663 11.21056,-35.59304 2.25947,-9.9 5.01708,-21.9 6.128,-26.66667 1.95453,-8.38635 3.16005,-13.75123 5.76744,-25.66667 0.682,-3.11666 1.86232,-8.36666 2.62294,-11.66666 0.76061,-3.3 2.63871,-11.7 4.17355,-18.66667 1.53484,-6.96667 3.38555,-15.06667 4.11269,-18 0.72714,-2.93333 2.20803,-9.53333 3.29087,-14.66667 1.08284,-5.13333 3.12674,-14.13333 4.54199,-20 1.41525,-5.86667 4.73052,-19.66667 7.36726,-30.66667 C 471.188,57.90346 499.33286,25.64792 565.6064,9.7218613 c 11.88525,-2.85612 62.92594,-3.25092 77.0603,-0.5960618 27.76594,5.2152775 57.5664,13.2990295 86.66667,23.5094315 5.50001,1.929783 11.05001,3.846292 12.33334,4.258909 2.72794,0.877087 3.25585,7.816525 0.66667,8.763392 -2.42379,0.88638 -31.33358,-1.393431 -59.00001,-4.65271 -95.31123,-11.228261 -156.26194,5.114273 -139.41762,37.381632 4.76523,9.128373 43.94326,57.271546 70.69947,86.877686 40.53377,44.8512 50.44334,51.72518 68.47763,47.50096 17.19497,-4.02762 22.97861,-10.07296 60.69012,-63.43619 27.73696,-39.24887 44.32194,-59.459291 75.08862,-91.502888 5.02065,-5.229023 9.12846,-9.879023 9.12846,-10.333334 0,-0.454311 -14.444,-0.826019 -32.09777,-0.826019 -29.84647,0 -32.0672,-0.163658 -31.66188,-2.333334 0.67583,-3.617795 22.60449,-13.700079 38.42631,-17.667518 3.3,-0.8275 7.8,-2.03767 10,-2.689267 21.84609,-6.470381 71.11584,-11.424494 92.39085,-9.289973 47.62967,4.77868 76.80923,32.664871 91.71184,87.646763 4.8939,18.05577 6.0936,22.70643 7.1365,27.66667 0.6168,2.93333 3.5504,14.93333 6.5192,26.66666 2.9688,11.73334 8.1697,32.73334 11.5577,46.66667 3.3879,13.93334 6.9669,28.63334 7.9532,32.66667 4.6072,18.83861 14.7154,27.94318 31.1141,28.02457 16.7142,0.0829 60.0491,10.97659 80.043,20.12139 4.6345,2.11972 8.7633,3.85404 9.1751,3.85404 1.362,0 24.9433,13.7837 31.7319,18.54783 32.5174,22.8203 46.7228,41.50997 56.842,74.78551 17.4146,57.26533 -26.8333,135.98699 -128.5087,228.6303 -14.4351,13.15281 -16.4693,8.8442 16.5292,35.01112 23.4772,18.61679 60.4209,48.45361 71.1375,57.45268 1.4666,1.23161 10.1666,8.53339 19.3333,16.22618 19.7676,16.58919 44.6931,38.16732 54,46.74799 3.6667,3.38055 14.1459,12.99815 23.2873,21.37244 52.959,48.51531 77.9421,75.89264 69.2556,75.89264 -0.6218,0 -4.4099,1.5 -8.4179,3.33334 -4.0081,1.83333 -7.7046,3.33333 -8.2144,3.33333 -0.5098,0 -6.6982,2.45789 -13.7521,5.46198 -17.2244,7.3355 -14.3683,6.16692 -48.1585,19.70469 -16.5,6.6106 -46.5,18.74333 -66.6667,26.96162 -20.1666,8.21829 -45.0666,18.33672 -55.3333,22.48541 -26.368,10.65513 -27.5345,8.34178 17.9554,35.60841 20.5948,12.34451 39.6799,23.79792 42.4115,25.45202 2.7315,1.6541 7.2978,4.3541 10.1472,6 2.8495,1.6459 6.1495,3.5999 7.3334,4.3422 1.1839,0.7423 20.1525,12.0715 42.1525,25.176 22,13.1045 43.6,26.0775 48,28.8289 7.2937,4.5609 29.2417,17.6848 52.3654,31.3121 45.2249,26.6521 48.5085,31.3763 40.1194,57.7212 -12.9448,40.6519 -31.8134,91.7419 -40.2357,108.9455 -1.077,2.2 -2.9961,6.4 -4.2645,9.3333 -26.4944,61.2697 -65.1563,125.9616 -116.0401,194.1667 -66.0613,88.5492 -163.9533,175.6427 -273.27784,243.1325 -8.06667,4.9798 -16.10227,9.9446 -17.8569,11.0329 -23.99191,14.8807 -92.25568,50.411 -123.47645,64.2678 -8.8,3.9057 -19.16778,8.5185 -23.03951,10.2507 -3.87173,1.7322 -7.62987,3.1494 -8.35143,3.1494 -0.72155,0 -2.35377,0.5937 -3.62715,1.3193 -1.27338,0.7256 -8.91524,3.9708 -16.98191,7.2115 -8.06667,3.2408 -19.59631,8.0156 -25.62144,10.6108 -21.43723,9.2337 -46.11596,13.3796 -63.7119,10.7033 z m -67.70224,-280.5977 c 0.97931,-5.4526 2.33295,-13.2138 3.0081,-17.2472 0.67515,-4.0333 1.83297,-10.6333 2.57294,-14.6666 6.11409,-33.3262 11.48031,-69.5996 14.7938,-100 0.6794,-6.2334 2.46508,-21.5334 3.96816,-34 1.50309,-12.4667 3.31572,-28.3667 4.02807,-35.3334 0.71235,-6.9666 1.87555,-16.5666 2.5849,-21.3333 1.54827,-10.404 3.43586,-28.0751 5.4121,-50.6667 2.48387,-28.3944 4.15099,-38.782 8.82213,-54.9691 8.89813,-30.8352 5.25044,-47.7988 -16.50468,-76.7549 -8.65531,-11.5203 -6.39478,-11.8925 -22.61361,3.724 -21.39689,20.6023 -19.71215,19.4042 -23.65342,16.8218 -4.34725,-2.8484 -4.31506,-3.1037 1.61708,-12.8214 2.75,-4.5049 5.96881,-9.7979 7.15292,-11.7622 1.1841,-1.9643 11.61527,-18.8715 23.18037,-37.5715 11.5651,-18.7 23.73876,-38.5 27.05257,-44 3.3138,-5.5 7.23351,-11.7343 8.71046,-13.854 2.73143,-3.9201 1.02233,-7.4794 -3.59148,-7.4794 -4.56978,0 -29.83068,-13.2799 -42.74764,-22.4729 -23.29643,-16.5801 -41.48629,-36.35062 -78.91272,-85.77015 -25.73023,-33.97533 -31.37386,-41.0309 -32.84815,-41.06621 -1.55725,-0.0373 0.25919,47.87844 3.1329,82.64264 3.03547,36.72102 5.24896,55.07632 10.53165,87.33332 0.72058,4.4 2.82295,17.6 4.67193,29.3333 3.28221,20.8284 4.5888,28.6998 7.35903,44.3334 0.74718,4.2167 2.21179,13.0667 3.25468,19.6667 1.0429,6.6 3.46859,21 5.39044,32 1.92185,11 4.10272,23.9 4.84638,28.6666 2.47249,15.848 3.48077,21.8436 7.06321,42 4.61589,25.9711 8.56239,48.6466 10.21051,58.6667 2.41993,14.7124 3.59553,21.1829 8.47873,46.6667 2.66991,13.9333 5.38467,28.3333 6.03282,32 0.64814,3.6666 2.17741,11.7666 3.39838,18 4.39088,22.4165 8.68012,44.8147 10.08565,52.6666 1.7414,9.7284 3.44435,18.5714 5.19958,27 0.72539,3.4834 2.19686,11.4334 3.26995,17.6667 1.97751,11.487 6.17005,33.4979 8.83938,46.4071 1.96771,9.516 4.03563,8.2402 6.20288,-3.8266 z m 185.61088,-23.9138 c 9.15503,-33.6973 10.00493,-37.1225 16.04595,-64.6667 0.64334,-2.9333 2.08451,-9.2333 3.20261,-14 1.11809,-4.7667 3.26547,-14.9667 4.77194,-22.6667 1.50648,-7.7 3.35639,-17 4.11091,-20.6666 1.65306,-8.0333 9.34052,-46.6439 10.22056,-51.3334 1.87243,-9.9774 5.9283,-30.8737 7.11683,-36.6666 2.54704,-12.4143 9.58798,-47.9606 10.82829,-54.6667 0.67815,-3.6667 1.73727,-9.3667 2.35359,-12.6667 0.61633,-3.3 3.96042,-19.8 7.43131,-36.6666 7.20661,-35.0202 6.24221,-30.2354 12.22748,-60.6667 2.52407,-12.8333 5.13871,-25.7334 5.81032,-28.6667 0.6716,-2.9333 2.43164,-11.9333 3.9112,-20 1.47955,-8.0667 3.30503,-17.6667 4.05662,-21.3333 0.75159,-3.6667 3.14625,-15.3667 5.32147,-26 2.17522,-10.6334 5.20007,-24.1334 6.72189,-30 11.94217,-46.03747 15.96041,-82.37193 15.96041,-144.3201 0,-28.79015 -0.32529,-35.01326 -1.83019,-35.01326 -3.0856,0 -11.85046,10.62762 -24.25445,29.40918 -6.51075,9.85828 -12.1552,18.22415 -12.54322,18.59082 -0.38801,0.36667 -4.84204,6.96667 -9.89783,14.66667 -20.51896,31.25046 -47.38309,69.52162 -58.27804,83.02401 -7.91437,9.80848 -41.03713,34.20318 -59.32768,43.69448 -5.7944,3.0068 -11.08388,6.0038 -11.75441,6.66 -0.72984,0.7143 2.48096,6.5534 8,14.5487 5.07053,7.3456 9.81914,14.4254 10.55247,15.733 0.73334,1.3076 2.83235,4.769 4.66447,7.692 1.83212,2.923 4.23212,6.8693 5.33333,8.7695 1.10121,1.9003 11.00221,18.4003 22.00221,36.6667 23.93744,39.7501 22.87234,37.4445 19.13575,41.4219 -4.53991,4.8325 -6.84599,3.8646 -15.29547,-6.4202 -14.01054,-17.0538 -15.73889,-18.829 -20.10996,-20.6554 -7.98288,-3.3354 -9.32786,-1.9858 -22.1221,22.1987 -8.34714,15.7782 -9.13592,34.865 -3.6091,87.3333 2.78506,26.4397 6.84544,60.7229 8.68536,73.3333 1.80174,12.3489 5.34395,38.3781 8.70952,64 0.77061,5.8667 1.981,14.2667 2.68975,18.6667 1.31937,8.1908 8.32462,56.5723 10.61806,73.3333 0.70241,5.1334 1.88737,13.2334 2.63324,18 0.74588,4.7667 1.9175,12.5667 2.6036,17.3334 1.16507,8.0942 3.04422,19.9882 4.81986,30.507 1.13791,6.7409 2.33128,4.1375 8.48345,-18.507 z M 242.29037,1370.557 c 6.76432,-9.8396 19.26016,-28.0903 27.76853,-40.5569 8.50838,-12.4667 17.98532,-26.2667 21.05987,-30.6667 15.64555,-22.3904 28.89532,-41.8536 31.47834,-46.2399 5.83294,-9.9051 -0.90559,-19.9159 -20.7512,-30.828 -16.00836,-8.8021 -16.05343,-8.857 -13.50249,-16.4582 3.0388,-9.0549 7.63565,-21.9679 8.94968,-25.1406 0.60745,-1.4666 1.83536,-4.7666 2.72868,-7.3333 0.89332,-2.5667 2.45388,-6.5574 3.4679,-8.8682 1.01402,-2.3108 1.84367,-4.5674 1.84367,-5.0145 0,-0.4472 1.27145,-3.6565 2.82544,-7.1318 14.38757,-32.1763 21.86907,-42.4167 45.84123,-62.7459 35.90799,-30.4511 46.30625,-63.6535 45.89795,-146.5556 -0.19945,-40.49509 4.36053,-50.17683 29.7307,-63.12418 16.14431,-8.23905 18.6931,-7.18279 42.28581,17.52388 11.24829,11.77938 20.89798,20.92938 21.44376,20.33333 12.79568,-13.97411 12.898,-47.50872 0.18351,-60.14187 -4.21164,-4.18469 -11.82956,-12.70852 -16.92872,-18.94186 -18.5342,-22.65667 -22.77918,-25.06573 -36.61301,-20.77822 -7.61286,2.35945 -14.26041,5.45927 -26,12.12405 -11.22106,6.37041 -30.03173,15.28649 -32.29278,15.30647 -0.89436,0.008 -3.78264,1.22562 -6.4184,2.70604 -20.95635,11.77048 -23.21179,17.96678 -24.74273,67.975 -1.62437,53.06037 -3.54676,67.49252 -13.58657,101.99996 -1.49353,5.1334 -3.2204,9.9034 -3.83751,10.6 -0.61711,0.6967 -1.12201,2.0554 -1.12201,3.0193 0,11.3872 -29.07487,54.97 -69.17158,103.6871 -39.35612,47.8173 -32.86236,46.8124 -68.92208,10.6648 -30.60276,-30.6774 -44.57302,-51.8783 -44.57302,-67.6429 0,-4.6728 -38.47256,40.6052 -44.89261,52.8337 -8.164304,15.5509 67.05288,101.0713 121.55928,138.2105 16.7305,11.3997 20.16928,17.2302 18.08507,30.6632 -0.78012,5.028 -1.4184,12.1034 -1.4184,15.7232 0,4.2234 -0.71653,7.176 -2,8.2412 -1.1,0.9129 -2,2.5381 -2,3.6116 0,1.0735 -1.17198,6.2501 -2.6044,11.5034 -1.43242,5.2534 -3.85025,15.5516 -5.37296,22.885 -1.52271,7.3333 -3.59732,15.8167 -4.61025,18.852 -1.8621,5.5799 -0.74044,9.1462 2.53341,8.0549 0.75852,-0.2528 6.91357,-8.5103 13.67789,-18.35 z M 1327.3334,1111.1858 c -2.4046,-1.8295 -117.191,-70.6106 -188,-112.65139 -36.4155,-21.62063 -41.8328,-23.47013 -52.535,-17.93581 -4.8248,2.49501 -12.6665,11.41537 -11.2347,12.78 1.0607,1.01084 46.5314,27.1574 62.6294,36.0132 4.2938,2.3621 8.407,4.7289 9.1403,5.2595 0.7333,0.5306 4.6333,2.7585 8.6667,4.951 4.0333,2.1924 18.4333,10.2625 32,17.9334 85.724,48.4703 102.2199,55.4928 130.6666,55.6259 10.4196,0.049 11.1184,-0.1106 8.6667,-1.9758 z m -552.17532,-99.7834 c 20.4631,-2.2948 37.69349,-16.6021 72.26922,-60.00883 44.15252,-55.42953 88.07862,-134.65563 102.05028,-184.0602 4.71124,-16.65921 7.55002,-51.84582 4.44967,-55.15343 -0.38544,-0.4112 -11.20315,5.30233 -43.9272,23.2008 -15.12564,8.273 -21.02073,11.45698 -32,17.28344 -6.6,3.50248 -13.8,7.41872 -16,8.70276 -11.37887,6.64133 -59.90196,30.67761 -68,33.68431 -8.33945,3.09634 -18.73539,6.36855 -32.66667,10.28212 -22.1584,6.22473 -29.33334,10.54425 -29.33334,17.65953 0,4.6636 11.62042,5.48015 22.66667,1.59276 26.87656,-9.45839 25.78775,-5.1915 -11.67872,45.76702 -9.65648,13.13386 -11.50129,12.47671 34.04506,12.12739 27.59135,-0.21161 39.61659,0.13543 39.95582,1.1531 1.41834,4.25503 -20.23688,10.28217 -54.32216,15.11909 -17.81884,2.5286 -24.69368,4.78333 -26.46966,8.68119 -3.05797,6.71151 -1.47065,10.32756 5.14378,11.71803 44.11017,9.27275 44.80208,9.7999 25.65921,19.54892 -12.12951,6.17729 -14.5112,7.91466 -15.49017,11.29964 -0.63626,2.2 -1.66888,5.01403 -2.29471,6.25341 -0.83525,1.65408 0.0954,3.72951 3.49911,7.80352 8.22289,9.84215 7.82456,15.98679 -2.16011,33.32259 -8.39615,14.57774 -8.42317,14.41304 2.44588,14.91094 9.27142,0.4247 11.10749,0.3511 22.15804,-0.8881 z M 310.88891,853.57249 c 0.84792,-2.08756 79.38966,-63.53938 91.15618,-71.32148 9.52787,-6.3015 27.74856,-7.07295 39.79322,-1.68482 2.28894,1.02396 9.26172,3.76694 15.49505,6.09553 6.23333,2.32858 19.3673,8.08231 29.1866,12.78605 22.86737,10.95418 27.70107,10.53199 34.65341,-3.02675 6.09718,-11.89097 3.41545,-13.97299 -86.90343,-67.46951 -21.53067,-12.75277 -22.93539,-12.54475 -61.60599,9.12308 -15.39849,8.62806 -33.12014,18.44094 -39.38144,21.80641 -27.69634,14.88688 -32.37744,22.37313 -29.50685,47.18876 0.86506,7.47832 1.57465,18.09694 1.57686,23.59694 0.007,18.25265 2.77513,29.70394 5.53639,22.90579 z m -1.31099,-101.92873 c 18.56549,-18.52928 41.40829,-42.14966 50.76179,-52.48973 29.74671,-32.8843 33.58373,-34.26117 82.05807,-29.44538 62.47084,6.20629 90.93558,-0.8544 90.93558,-22.5566 0,-1.83548 -0.3844,-1.95359 -14.66666,-4.50635 -4.76667,-0.85198 -12.86667,-2.37399 -18,-3.38224 -5.13334,-1.00826 -15.93334,-3.05422 -24.00001,-4.54658 -20.34825,-3.76451 -38.65718,-7.26757 -66.47324,-12.7184 -26.32143,-5.15793 -31.58458,-5.50543 -41.87875,-2.76506 -14.32436,3.81324 -17.10618,6.10477 -50.31468,41.44669 -11,11.70667 -32.95407,34.49275 -48.78681,50.63573 -29.77625,30.35968 -34.9966,36.76745 -32.2179,39.54616 1.67333,1.67332 3.43396,0.41741 25.89803,-18.47387 13.02076,-10.94988 16.61191,-12.22032 15.23054,-5.3881 -0.48187,2.38334 -1.49982,8.53334 -2.26209,13.66667 -0.76228,5.13333 -1.92164,12.63333 -2.57635,16.66667 -6.08571,37.49088 -7.1376,37.65578 36.29248,-5.68961 z M 670.6667,732.02039 c 56.38284,-3.28256 128.0523,-17.29644 163.4942,-31.9688 1.55514,-0.6438 9.35514,-3.34052 17.33334,-5.9927 7.97819,-2.65218 15.70581,-5.36617 17.17248,-6.03109 1.46666,-0.66491 10.46666,-4.29536 20,-8.06765 26.23219,-10.37995 69.93172,-31.2341 93.17093,-44.46273 7.24401,-4.12357 13.38788,-7.49739 13.65303,-7.49739 0.26516,0 4.69442,-2.7 9.84272,-6 5.1483,-3.3 9.7071,-6 10.1306,-6 1.326,0 37.9005,-25.19941 51.8694,-35.73733 86.8943,-65.55193 136.7276,-149.14939 118.8091,-199.30732 -14.9803,-41.93328 -69.1692,-73.91984 -137.9706,-81.44113 -6.4937,-0.7099 -6.5038,-0.65618 -2.8351,15.15243 22.9114,98.72821 -40.5215,168.85579 -230.67009,255.01504 -2.56666,1.16299 -11.16298,5.16038 -19.10293,8.88309 -7.93995,3.7227 -14.78184,6.76855 -15.20421,6.76855 -0.42237,0 -4.42605,1.72637 -8.89707,3.83638 -4.47102,2.11001 -18.92912,8.47033 -32.12912,14.13403 -13.20001,5.6637 -26.40001,11.36357 -29.33334,12.66639 -2.93333,1.30281 -11.93333,5.20812 -20,8.67846 -8.06667,3.47034 -17.83445,7.74409 -21.70618,9.49723 -3.87174,1.75313 -7.27987,3.18751 -7.57364,3.18751 -0.5274,0 -9.42347,3.99876 -28.5057,12.81321 -5.38203,2.48607 -10.00906,4.52013 -10.28229,4.52013 -0.27322,0 -6.2752,2.7 -13.33772,6 -7.06251,3.3 -13.04362,6 -13.29135,6 -0.24772,0 -4.39227,1.8 -9.2101,4 -4.81783,2.2 -12.70156,5.8 -17.51939,8 -4.81783,2.2 -8.95825,4 -9.20094,4 -2.32078,0 -23.42938,11.10139 -22.54538,11.85702 0.64497,0.55131 8.57454,3.94537 17.62127,7.54235 28.88045,11.48289 26.10878,13.78978 -17.12463,14.25305 -41.55757,0.44531 -43.39533,2.19609 -11.32396,10.78802 20.34575,5.45064 93.03349,7.9193 144.66667,4.91325 z m 38.66667,-201.34607 c 4.76667,-0.66881 14.06667,-1.90437 20.66667,-2.74568 27.69984,-3.53093 65.86598,-10.84405 86.66667,-16.60643 52.14068,-14.44445 105.52315,-44.40612 153.53782,-86.17529 43.50977,-37.85027 56.27067,-70.04959 43.52007,-109.81357 -3.775,-11.77294 -7.7785,-27.42097 -14.49781,-56.66667 -1.09516,-4.76667 -2.53131,-10.76667 -3.19145,-13.33334 -0.66013,-2.56666 -1.81319,-7.36666 -2.56234,-10.66666 -2.41488,-10.63754 -13.50269,-56.43466 -15.50142,-64.02711 -1.06571,-4.04824 -2.499,-10.04824 -3.1851,-13.33334 -0.68609,-3.28509 -3.43603,-14.37289 -6.11097,-24.63956 -2.67493,-10.26666 -5.34408,-20.76667 -5.93144,-23.33333 -7.02159,-30.683487 -20.88586,-45.558951 -42.74402,-45.861561 -21.24581,-0.294133 -31.95587,9.734089 -87.24578,81.691391 -6.55184,8.52693 -19.73317,25.4035 -29.29183,37.5035 -52.01883,65.84895 -65.03053,77.17708 -92.36595,80.41481 -6.46972,0.76631 -11.92099,1.49434 -12.11395,1.61785 -1.11427,0.71325 4.04794,9.84092 7.24163,12.80443 16.49782,15.30885 25.83541,9.75444 83.10921,-49.43695 17.23333,-17.81033 50.19539,-50.46141 73.24901,-72.55795 23.05362,-22.09654 42.83697,-41.22552 43.96299,-42.50885 5.24025,-5.97234 10.21204,3.35247 14.75129,27.66666 0.82144,4.4 2.056,10.7 2.74348,14 0.68747,3.3 1.88297,10.2 2.65666,15.33334 1.35446,8.98665 5.83432,33.95667 10.00951,55.79143 9.87384,51.6367 6.67802,73.7821 -13.7877,95.54191 -4.48319,4.76666 -8.1739,9.1584 -8.20158,9.7594 -0.17513,3.80269 7.90178,-2.5668 29.28301,-23.09274 27.66581,-26.55911 27.73121,-26.59575 31.63681,-17.7259 12.7655,28.99127 14.42629,52.44906 5.24891,74.13841 -8.90926,21.05571 -63.19714,63.04847 -113.55239,87.83505 -17.22069,8.47661 -45.02433,19.91939 -54.66667,22.49844 -2.2,0.58843 -9.4,2.66696 -16,4.61894 -12.77293,3.77766 -15.63504,4.48053 -31.33333,7.69474 -35.83774,7.33775 -64.90179,10.22112 -103.33334,10.25145 -38.25416,0.0302 -52.93579,-1.58743 -97.33334,-10.72413 -19.58744,-4.03096 -46.50301,-14.25686 -77.33334,-29.38089 -17.43159,-8.55118 -25.0137,-12.49399 -54,-28.08077 -10.68357,-5.74486 -14.66667,-6.70366 -14.66667,-3.53051 0,1.9424 36.06141,37.08858 47.72302,46.51183 56.49135,45.64823 158.96137,70.35119 242.94366,58.56765 z"
       id="path1" />
  </g>
</svg>
